<?xml version="1.0" standalone="no"?>
<!DOCTYPE svg PUBLIC "-//W3C//DTD SVG 20010904//EN"
 "http://www.w3.org/TR/2001/REC-SVG-20010904/DTD/svg10.dtd">
<svg version="1.0" xmlns="http://www.w3.org/2000/svg"
 width="120.000000pt" height="120.000000pt" viewBox="0 0 120.000000 120.000000"
 preserveAspectRatio="xMidYMid meet">

<g transform="translate(0.000000,120.000000) scale(0.100000,-0.100000)"
fill="#000000" stroke="none">
<path d="M80 966 c0 -11 239 -435 306 -543 13 -21 22 -23 113 -23 l99 0 51 70
c28 38 51 71 51 73 0 1 -22 20 -49 41 -49 37 -60 53 -208 306 l-50 85 -156 3
c-130 2 -157 0 -157 -12z"/>
<path d="M743 805 c-57 -96 -103 -176 -103 -178 0 -11 61 -28 79 -22 17 5 29
-8 77 -80 31 -47 58 -84 60 -83 17 19 294 508 294 521 0 15 -14 17 -152 17
l-153 0 -102 -175z"/>
<path d="M672 418 c-7 -7 -12 -22 -12 -35 0 -45 -111 -72 -156 -38 -10 8 -29
15 -41 15 -22 0 -23 -4 -23 -79 l0 -80 53 -4 52 -3 -52 -2 -53 -2 0 -36 0 -35
283 3 c251 3 286 5 310 21 30 19 38 67 12 67 -8 0 -14 5 -12 11 1 6 -16 17
-38 23 -22 7 -54 20 -71 29 -17 9 -41 13 -53 10 -16 -4 -22 -2 -19 8 3 15 -9
20 -30 11 -20 -7 -26 6 -11 24 12 15 11 16 -19 10 -33 -8 -41 1 -20 22 9 9 9
12 -3 12 -8 0 -20 -5 -27 -12 -17 -17 -27 -2 -12 17 11 13 10 19 -5 35 -21 23
-36 25 -53 8z m79 -142 c19 -8 46 -12 62 -9 35 7 36 -14 0 -23 -14 -4 -40 -2
-58 5 -42 15 -59 14 -116 -6 -35 -13 -52 -14 -59 -7 -8 8 6 17 47 32 72 25 82
26 124 8z m-48 -83 c-23 -2 -64 -2 -90 0 -26 2 -7 3 42 3 50 0 71 -1 48 -3z
m225 0 c-21 -2 -57 -2 -80 0 -24 2 -7 4 37 4 44 0 63 -2 43 -4z"/>
</g>
</svg>
